<svg id="svg2" xmlns="http://www.w3.org/2000/svg" viewBox="0 0 602.56 267.36"><defs><style>.cls-1{fill:#fff;}</style></defs><title>ACM_front_white</title><path id="path817" class="cls-1" d="M52.28,267.53c-9-1.69-14.23-4.2-19.2-9.28-6.3-6.44-9.58-15.8-10.56-30.15-.33-4.76,0-35.81.65-59.18.42-15.74,0-19.25-2.62-24.86-2.76-5.79-8.26-9.18-17.48-10.8l-3.27-.57v-4.58L2,127.72c7.54-1.36,14.16-4.65,17-8.46a17.27,17.27,0,0,0,3.27-7c.6-2.32.7-3.82.83-12,.09-5.16,0-17.12-.2-26.56-.55-26.85.35-40.81,3.2-49.48C28,18.26,32.12,12.1,36.32,8.8,43.25,3.36,52.2,1.18,68.76.9L74.84.8l.09,2.64L75,6.08h-.85A53.17,53.17,0,0,0,64.6,7.73c-5.68,1.91-11.67,7.77-14,13.71-2.45,6.21-2.94,14.48-2.64,44.64.21,21.62-.06,33.16-.94,39.39a27.49,27.49,0,0,1-7.67,16.08,27.46,27.46,0,0,1-13.13,7.76l-3,.84c-.27.08.82.48,2.42.88a28.75,28.75,0,0,1,20.48,20.72c1.46,5.66,1.47,5.91,1.73,44.09.24,36.31.37,40.25,1.47,46.34,2.32,12.73,11.15,20.47,24.62,21.58,1,.08,1,.09,1.05,2.24l.1,2.16-9.86,0c-8,0-10.42-.14-12.89-.6ZM526.9,266l.1-2.16,2.55-.23a27.31,27.31,0,0,0,14.66-5.85c5.64-4.65,8.55-11.86,9.52-23.59.21-2.46.47-19.21.62-39.77.25-33.88.29-35.68.92-39,1.37-7.33,3.57-11.92,7.87-16.44A28.4,28.4,0,0,1,576.58,131l2.89-.73-1.43-.37a32.61,32.61,0,0,1-12.41-5.7,31.17,31.17,0,0,1-7.55-9c-3.66-7-4.07-12.42-4-52.19.06-29.35-.05-32.21-1.53-38.07a23.67,23.67,0,0,0-8.21-13.15c-4-3.35-7.66-4.77-14.08-5.47L526.81,6l.1-2.58L527,.8l6.24.1c9.82.16,17.81,1.14,23,2.82q18.81,6.14,22,30.84c1.19,9.33,1.34,18.93.87,53.6-.28,20.15,0,23.42,2.26,28.27a18.47,18.47,0,0,0,7.3,7.36A45,45,0,0,0,600,127.7l2.32.4v4.59l-3.28.57c-9.1,1.59-14.67,5-17.49,10.8s-3.09,8.67-2.62,25.63c.2,7.26.46,23.27.57,35.59.2,23.6.1,26.46-1.23,33.41-2.72,14.23-9.78,23.19-21.33,27-6.13,2-9.6,2.45-20.59,2.45h-9.58Zm-239.82-6.17c-16-1.34-28.29-7-38.81-18a56.37,56.37,0,0,1-15.37-32.53,92.55,92.55,0,0,1,0-19.41,57.57,57.57,0,0,1,8.87-23.79c9.35-13.93,24.74-23.43,42.35-26.14a85,85,0,0,1,17.75-.19,67.43,67.43,0,0,1,39.41,19.84,15.31,15.31,0,0,1,2.44,2.94c-.05.14-3.52,3.52-7.7,7.51l-7.61,7.24-2.06-1.93c-10.7-10-20.88-14.44-33.1-14.44-12.95,0-23.68,5.28-31.25,15.34-5.48,7.3-7.77,15-7.39,24.95.42,11.18,4,19.65,11.33,26.63a38.92,38.92,0,0,0,20.57,10,54,54,0,0,0,14.42,0,46.12,46.12,0,0,0,12.21-4,71.58,71.58,0,0,0,12.09-9,33.44,33.44,0,0,1,3.2-2.74c.21,0,13.39,13.8,14.3,14.94l.71.88L340,241.07c-12.77,11.53-23.18,16.71-37,18.42a104.37,104.37,0,0,1-15.89.34ZM106.58,257c-.08-.13,9.82-26,22-57.52l22.14-57.28,11.21-.08,11.21-.09,12.42,32.25c6.83,17.73,16.78,43.54,22.1,57.36s9.58,25.23,9.45,25.36-5.33.21-11.56.16l-11.32-.08-4.47-11.76L185.3,233.6H138.84l-4.65,11.76-4.64,11.76-11.42.08c-6.27.05-11.47,0-11.55-.16ZM176,209.2c-.57-1.45-3.91-10-7.42-19S162.11,173.89,162,174s-3.33,8.22-7.15,18-7.14,18.23-7.38,18.8l-.43,1h30ZM357.88,257c0-.3,19.43-112.77,19.7-114.07l.19-.88h21.65l13,39.28c7.16,21.6,13.11,39.38,13.23,39.51s6.11-17.3,13.3-38.72,13.22-39.2,13.37-39.51c.26-.52,1.11-.56,11-.56,6.8,0,10.71.11,10.71.31s4.32,26,9.6,57.33,9.6,57.13,9.6,57.28a101,101,0,0,1-10.7.28H471.85l-.18-.88c-.1-.48-2.78-16.22-6-35s-5.88-34.4-6-34.78-3.53,9.1-12.22,34.88l-12,35.58-9.81.08-9.82.09-11.93-35.77c-6.56-19.67-12-35.54-12-35.28-.26,1.26-12.25,70.53-12.25,70.77s-4.9.27-10.88.27-10.88-.11-10.88-.25ZM158,127a41.23,41.23,0,0,1-19.41-6.76A42.1,42.1,0,0,1,129,110.2a35.23,35.23,0,0,1-4.19-11.8c-1-6.12-1.15-14.34-1.16-51.76V9.28h11.84V47c0,39.69.17,46.26,1.25,50.48,2.22,8.7,8.12,14.19,18.46,17.19,2.13.62,3.25.73,7.32.72,4.57,0,4.94-.06,7.84-1.06A24.38,24.38,0,0,0,185.69,100c2.43-5.82,2.57-8.85,2.58-54.49V9.28h11.84V45.84c0,36.22-.15,42.48-1.13,49.09-1,7-3.07,12.79-6,17a53.83,53.83,0,0,1-7.94,8.22c-7.38,5.64-16.34,7.91-27.12,6.87Zm92.72-3.21c0-.8,16-113.54,16.17-114.13.07-.22.6-.4,1.18-.4h1.05l23.2,46.88c15,30.24,23.29,46.73,23.47,46.47s10.47-21.27,22.93-46.79l22.68-46.4,1.24-.1,1.24-.09L371.93,66c4.46,31.21,8.17,57.14,8.26,57.63l.17.88-5.88-.08-5.88-.09-5.55-40.48c-3.06-22.26-5.62-40.54-5.69-40.61s1.41-3.37-20.27,40.69l-20,40.56h-3.26l-20.32-41C275.07,46.26,273.22,42.66,273,43.6c-.13.57-2.62,18.82-5.54,40.56s-5.36,39.7-5.44,39.92-1.54.4-5.74.4c-5.49,0-5.61,0-5.61-.67ZM430.84,66.88V9.28h11.84V112.64h44.16v11.84h-56Z" transform="translate(0.2 -0.8)"/></svg>