<?xml version="1.0" encoding="UTF-8" standalone="no"?>
<!-- Created with Inkscape (http://www.inkscape.org/) -->

<svg
   xmlns:dc="http://purl.org/dc/elements/1.1/"
   xmlns:cc="http://creativecommons.org/ns#"
   xmlns:rdf="http://www.w3.org/1999/02/22-rdf-syntax-ns#"
   xmlns:svg="http://www.w3.org/2000/svg"
   xmlns="http://www.w3.org/2000/svg"
   xmlns:sodipodi="http://sodipodi.sourceforge.net/DTD/sodipodi-0.dtd"
   xmlns:inkscape="http://www.inkscape.org/namespaces/inkscape"
   version="1.1"
   id="svg2"
   width="603.52002"
   height="268.16"
   viewBox="0 0 603.52002 268.16"
   sodipodi:docname="sweatshirt_front_black.svg"
   inkscape:version="0.92.2 (5c3e80d, 2017-08-06)">
  <metadata
     id="metadata8">
    <rdf:RDF>
      <cc:Work
         rdf:about="">
        <dc:format>image/svg+xml</dc:format>
        <dc:type
           rdf:resource="http://purl.org/dc/dcmitype/StillImage" />
        <dc:title></dc:title>
      </cc:Work>
    </rdf:RDF>
  </metadata>
  <defs
     id="defs6" />
  <sodipodi:namedview
     pagecolor="#ffffff"
     bordercolor="#666666"
     borderopacity="1"
     objecttolerance="10"
     gridtolerance="10"
     guidetolerance="10"
     inkscape:pageopacity="0"
     inkscape:pageshadow="2"
     inkscape:window-width="1920"
     inkscape:window-height="1017"
     id="namedview4"
     showgrid="false"
     inkscape:zoom="1.6262331"
     inkscape:cx="333.63475"
     inkscape:cy="123.09667"
     inkscape:window-x="1912"
     inkscape:window-y="-8"
     inkscape:window-maximized="1"
     inkscape:current-layer="svg2" />
  <path
     style="fill:#000000;stroke-width:0.31999999"
     d="m 52.278503,267.53068 c -9.034593,-1.69116 -14.226625,-4.20158 -19.200001,-9.28348 -6.29663,-6.43402 -9.576285,-15.79733 -10.558349,-30.14374 -0.325885,-4.76067 0.01333,-35.81824 0.646455,-59.18747 0.426325,-15.73605 0.05631,-19.24938 -2.617872,-24.85718 -2.760245,-5.78828 -8.254975,-9.18325 -17.4747277,-10.79693 l -3.275507,-0.57329 v -2.28898 -2.28899 l 2.16,-0.38941 c 7.5464047,-1.36051 14.1659077,-4.65323 17.0079687,-8.46023 1.726511,-2.31269 2.490622,-3.94762 3.278495,-7.01486 0.594708,-2.31522 0.69837,-3.82035 0.828975,-12.03631 0.0821,-5.164607 -0.0095,-17.116607 -0.203605,-26.560007 -0.551731,-26.84542 0.352356,-40.80982 3.203509,-49.48088 1.943423,-5.91044 6.049298,-12.06714 10.248841,-15.368 6.922953,-5.44148 15.876365,-7.62192 32.435818,-7.89914 l 6.08,-0.10178 0.09294,2.64 0.09294,2.64 h -0.851872 c -1.747504,0 -7.720554,1.03093 -9.57401,1.65245 -5.676446,1.90348 -11.671793,7.76721 -14.015224,13.70755 -2.45007,6.21066 -2.940048,14.48119 -2.644634,44.64 0.21176,21.61866 -0.06293,33.16294 -0.937312,39.391827 -0.9119,6.4962 -3.275667,11.45266 -7.66719,16.07695 -3.61905,3.81088 -7.876461,6.32592 -13.135638,7.75982 -1.408,0.38389 -2.776,0.76256 -3.04,0.84148 -0.264,0.0789 0.823711,0.47561 2.417137,0.88153 9.946494,2.53383 17.836894,10.51445 20.479871,20.71403 1.468147,5.66576 1.47783,5.91214 1.733376,44.09436 0.243017,36.31002 0.368467,40.25053 1.47542,46.34445 2.311143,12.72312 11.142372,20.4644 24.614196,21.57631 0.953501,0.0787 0.96064,0.0939 1.054621,2.23924 l 0.09462,2.16 -9.854621,-0.0301 c -7.996698,-0.0245 -10.427764,-0.13742 -12.894621,-0.59918 z M 526.90389,266 l 0.0946,-2.16 2.556,-0.23159 c 5.41581,-0.49069 10.73008,-2.61244 14.65776,-5.85217 5.63817,-4.65063 8.54774,-11.85765 9.52131,-23.58434 0.20429,-2.46067 0.464,-19.21566 0.61651,-39.7719 0.2513,-33.87722 0.29395,-35.6828 0.92192,-39.04 1.37085,-7.32883 3.56787,-11.91844 7.86816,-16.43654 3.62864,-3.81245 8.39815,-6.61137 13.43652,-7.88498 l 2.89644,-0.73218 -1.43731,-0.36939 c -5.26061,-1.35202 -8.88032,-3.01239 -12.40915,-5.6921 -2.65789,-2.01832 -5.92787,-5.92477 -7.54887,-9.01811 -3.6567,-6.97811 -4.07184,-12.42122 -3.98035,-52.186697 0.0675,-29.35233 -0.0468,-32.20864 -1.52384,-38.06971 -1.38649,-5.50184 -3.90243,-9.5316 -8.20921,-13.14875 -3.98477,-3.34668 -7.66333,-4.7762 -14.08189,-5.47235 l -3.46816,-0.37615 0.0921,-2.58652 0.0921,-2.58652 6.24,0.0997 c 9.82045,0.15689 17.80659,1.13744 22.96774,2.82003 12.54208,4.08886 19.86445,14.37158 21.96148,30.84028 1.18803,9.33024 1.34352,18.92918 0.86819,53.6 -0.27626,20.151557 -0.0141,23.420397 2.2671,28.267177 1.26083,2.67883 4.20234,5.64771 7.29549,7.36335 2.71059,1.50346 7.97658,3.30178 11.44,3.90673 l 2.32,0.40524 v 2.29304 2.29305 l -3.28,0.57405 c -9.09488,1.59174 -14.66986,5.03382 -17.49293,10.80043 -2.78253,5.68383 -3.08707,8.67065 -2.61347,25.63184 0.2025,7.2518 0.4567,23.26509 0.56493,35.58509 0.20733,23.60439 0.10249,26.46389 -1.22496,33.41149 -2.71949,14.23318 -9.78644,23.18433 -21.33216,27.01968 -6.1304,2.03646 -9.59728,2.44883 -20.58784,2.44883 h -9.58282 z m -239.82043,-6.17203 c -16.03048,-1.33734 -28.28966,-7.01217 -38.81589,-17.96802 -8.54303,-8.89172 -13.64721,-19.69678 -15.3684,-32.53344 -0.67654,-5.04567 -0.67057,-14.79416 0.0119,-19.40651 1.32873,-8.98004 4.32464,-17.01378 8.87021,-23.78608 9.34955,-13.92961 24.74115,-23.43328 42.34815,-26.14823 4.3205,-0.66621 13.48015,-0.76031 17.74909,-0.18233 15.05864,2.03879 29.37465,9.24299 39.41209,19.8332 1.39527,1.47211 2.49434,2.79552 2.44237,2.94091 -0.0519,0.14538 -3.51913,3.52507 -7.70486,7.51041 l -7.61037,7.24606 -2.06272,-1.92955 c -10.69058,-10.00052 -20.87864,-14.44701 -33.0929,-14.4431 -12.94798,0.004 -23.68617,5.27557 -31.25344,15.34247 -5.48307,7.29426 -7.76457,14.99621 -7.38982,24.94681 0.42113,11.18174 4.02747,19.65306 11.33558,26.62734 5.46344,5.21388 12.73095,8.75745 20.56407,10.02686 3.93665,0.63797 10.58737,0.63285 14.42361,-0.0111 3.87915,-0.65115 9.04093,-2.36359 12.20291,-4.04836 3.13114,-1.66834 8.14801,-5.39751 12.09348,-8.98937 1.672,-1.52215 3.112,-2.75449 3.2,-2.73852 0.20982,0.0381 13.38928,13.80458 14.30649,14.94372 l 0.70647,0.87744 -3.47418,3.13548 c -12.76966,11.52467 -23.17885,16.70398 -37.01012,18.41518 -3.93663,0.48703 -12.03569,0.65975 -15.88371,0.33873 z M 106.58055,257.04402 C 106.50315,256.90981 116.402,231.024 128.57794,199.52 l 22.13807,-57.28 11.21372,-0.084 11.21372,-0.084 12.41793,32.24404 c 6.82987,17.73422 16.7752,43.54804 22.10075,57.36404 5.32555,13.816 9.5778,25.22987 9.44944,25.36416 -0.12836,0.13429 -5.3302,0.20629 -11.55964,0.16 l -11.32626,-0.0842 -4.46404,-11.76 -4.46406,-11.76 -23.22953,0.002 -23.22954,0.002 -4.64587,11.75781 -4.64588,11.75781 -11.41275,0.084 c -6.27702,0.0462 -11.47607,-0.0258 -11.55345,-0.16 z M 175.99929,209.2 c -0.56978,-1.452 -3.90662,-10.01423 -7.4152,-19.02717 -3.50858,-9.01295 -6.47423,-16.28495 -6.59034,-16.16 -0.11611,0.12494 -3.33611,8.21917 -7.15555,17.98717 -3.81944,9.768 -7.13852,18.228 -7.37574,18.8 l -0.4313,1.04 h 15.00204 15.00205 z m 181.87922,47.82729 c 0,-0.29696 19.4288,-112.7711 19.704,-114.06729 l 0.18685,-0.88 h 10.82534 10.82532 l 13.01782,39.28 c 7.15981,21.604 13.11482,39.38263 13.23335,39.50807 0.11849,0.12544 6.10464,-17.29856 13.30252,-38.72 7.19786,-21.42144 13.21309,-39.20007 13.36717,-39.50807 0.25844,-0.5166 1.11015,-0.56 10.9889,-0.56 6.79901,0 10.70874,0.11479 10.70874,0.31442 0,0.17292 4.32,25.96821 9.6,57.32285 5.28,31.35464 9.6,57.13316 9.6,57.28559 0,0.15243 -4.81255,0.27714 -10.69456,0.27714 h -10.6946 l -0.18201,-0.88 c -0.1001,-0.484 -2.78173,-16.216 -5.95917,-34.96 -3.17744,-18.744 -5.87898,-34.39686 -6.00342,-34.78414 -0.16388,-0.51 -3.53472,9.10666 -12.22625,34.88 l -12,35.58414 -9.8118,0.0846 -9.81181,0.0846 -11.93306,-35.76459 C 397.35867,201.85406 391.9444,185.976 391.89013,186.24 c -0.25879,1.25861 -12.25162,70.53326 -12.25162,70.76932 0,0.14888 -4.896,0.27068 -10.88,0.27068 -5.984,0 -10.88,-0.11372 -10.88,-0.25271 z M 157.95899,127.01756 c -7.32243,-0.70803 -13.6508,-2.91327 -19.40463,-6.76191 -2.92643,-1.95744 -7.77584,-7.05504 -9.56278,-10.05221 -1.96533,-3.29636 -3.55224,-7.76522 -4.19146,-11.803437 -0.96848,-6.11831 -1.15232,-14.34261 -1.15697,-51.76 l -0.005,-37.36 h 5.92 5.92 l 0.0117,37.68 c 0.0123,39.69176 0.17513,46.26139 1.25146,50.48 2.22076,8.704037 8.11514,14.194427 18.45402,17.189207 2.13822,0.61937 3.25476,0.72931 7.32289,0.72105 4.57588,-0.009 4.94194,-0.0586 7.84,-1.05635 7.33461,-2.52516 12.40703,-7.25004 15.33567,-14.28495 2.42378,-5.822177 2.56707,-8.852467 2.57669,-54.488957 l 0.008,-36.24 h 5.92 5.92 l -0.005,36.56 c -0.005,36.22264 -0.14877,42.48154 -1.12993,49.08934 -1.0397,7.002047 -3.07094,12.790097 -5.96534,16.998397 -1.40039,2.0361 -5.77068,6.56018 -7.93998,8.2194 -7.37808,5.64319 -16.33757,7.91298 -27.11952,6.87042 z m 92.71952,-3.21243 c 0,-0.79079 15.97167,-113.533777 16.16747,-114.125127 0.0728,-0.22 0.60496,-0.39965 1.18249,-0.39922 l 1.05004,7.9e-4 23.2,46.87381 c 14.97051,30.24676 23.29484,46.733847 23.46737,46.479217 0.14705,-0.21703 10.46946,-21.274597 22.93871,-46.794597 l 22.67136,-46.4 1.24247,-0.0955 1.24243,-0.0955 8.09366,56.73552 c 4.45152,31.20454 8.16867,57.134847 8.26032,57.622907 l 0.16663,0.88738 -5.87988,-0.0874 -5.8799,-0.0874 -5.55584,-40.479997 c -3.05568,-22.26396 -5.61242,-40.53996 -5.68157,-40.6133 -0.17907,-0.18986 1.40343,-3.36611 -20.27443,40.69334 L 317.1338,124.48005 h -1.63193 -1.63192 L 293.55423,83.524953 c -18.4832,-37.26087 -20.33649,-40.86174 -20.54592,-39.92 -0.1266,0.5693 -2.6174,18.8191 -5.53511,40.5551 -2.91771,21.735997 -5.3656,39.699997 -5.43976,39.919997 -0.10102,0.29966 -1.5421,0.4 -5.74489,0.4 -5.49334,0 -5.61004,-0.014 -5.61004,-0.67487 z m 180.16,-56.925127 v -57.6 h 5.92 5.92 v 51.68 V 112.64 h 22.08001 22.08 v 5.92 5.92 h -28 -28.00001 z"
     id="path817"
     inkscape:connector-curvature="0" />
</svg>
