<?xml version="1.0" encoding="utf-8"?>
<!-- Generator: Adobe Illustrator 24.0.3, SVG Export Plug-In . SVG Version: 6.00 Build 0)  -->
<svg version="1.1" id="Layer_1" xmlns="http://www.w3.org/2000/svg" xmlns:xlink="http://www.w3.org/1999/xlink" x="0px" y="0px"
	 viewBox="0 0 77 76.9" style="enable-background:new 0 0 77 76.9;" xml:space="preserve">
<style type="text/css">
	.st0{display:none;}
	.st1{display:inline;}
	.st2{fill:#00BFDA;stroke:#00BFDA;stroke-miterlimit:10;}
	.st3{fill:#00BFDA;stroke:#00BFDA;stroke-linecap:round;stroke-linejoin:round;stroke-miterlimit:10;}
	.st4{display:inline;fill:#00BFDA;}
	.st5{font-family:'ComicSansMS';}
	.st6{font-size:18.4198px;}
	.st7{fill:#00BFDA;}
	.st8{fill:#00BFDA;stroke:#00BFDA;stroke-width:0.5;stroke-linecap:round;stroke-linejoin:round;stroke-miterlimit:10;}
</style>
<g class="st0">
	<g class="st1">
		<path class="st2" d="M38.5,71C28.3,71,18.2,71,8,71c-3,0-4.5-1.5-4.5-4.6c0-5.7,0-11.5,0-17.2c0-3,1.5-4.5,4.5-4.5
			c5.1,0,10.2,0,15.4,0c1.6,0,2-0.4,2-2c0-6.2,0-12.4,0-18.6c0-3.2,1.6-4.8,4.8-4.8c5.6,0,11.2,0,16.8,0c3.1,0,4.7,1.6,4.7,4.7
			c0,3.7,0,7.4,0.1,11.1c0,2.5,0,4.9,0,7.4c0,1.9,0.3,2.2,2.3,2.2c5,0,10,0,15.1,0c3,0,4.5,1.5,4.5,4.5c0,5.8,0,11.5,0,17.3
			c0,2.9-1.6,4.5-4.5,4.5C58.8,71,48.6,71,38.5,71z M38.4,70c10.2,0,20.4,0,30.6,0c2.3,0,3.5-1.2,3.5-3.5c0-5.8,0-11.7,0-17.5
			c0-2.3-1.2-3.4-3.5-3.4c-5.2,0-10.3,0-15.5,0c-2.1,0-2.9-0.8-2.9-2.9c0-3,0-6.1,0-9.1c0-3.2,0-6.4-0.1-9.6c0-2.5-1.2-3.7-3.8-3.7
			c-5.6,0-11.2,0-16.8,0c-2.6,0-3.8,1.2-3.8,3.8c0,6.2,0,12.4,0,18.7c0,2.1-0.8,2.9-2.9,2.9c-5.1,0-10.2,0-15.4,0
			c-2.5,0-3.6,1.1-3.6,3.6c0,5.7,0,11.5,0,17.2C4.4,68.9,5.6,70,8,70C18.2,70,28.3,70,38.4,70z"/>
		<path class="st3" d="M46.9,3.9c0,0.1,0,0.1,0,0.2c-0.8,2-1.6,4-2.4,6c-0.1,0.2-0.4,0.2-0.6,0.3c-0.1-0.2-0.3-0.5-0.2-0.6
			c0.8-2,1.5-4,2.3-6c0.1-0.2,0.3-0.3,0.5-0.3c0.2,0,0.4,0.1,0.6,0.2C47,3.7,46.9,3.8,46.9,3.9z"/>
		<path class="st3" d="M33.5,9.9c-0.1,0.1-0.3,0.4-0.3,0.4c-0.2-0.1-0.5-0.2-0.6-0.4c-0.5-1.2-0.9-2.3-1.4-3.5
			c-0.3-0.8-0.6-1.5-0.9-2.3c-0.1-0.2,0.2-0.5,0.2-0.7C30.7,3.5,31,3.6,31,3.8c0.8,1.9,1.6,3.9,2.3,5.9C33.4,9.7,33.4,9.8,33.5,9.9z
			"/>
		<path class="st3" d="M39,5.9c0,1,0,2.1,0,3.1c0,0.3-0.3,0.6-0.4,0.8c-0.2-0.3-0.5-0.5-0.5-0.8c0-2.1,0-4.3,0-6.4
			c0-0.2,0.3-0.5,0.4-0.7c0.2,0.3,0.5,0.5,0.5,0.8C39,3.8,39,4.8,39,5.9z"/>
	</g>
	<text transform="matrix(1 0 0 1 55.6627 65.114)" class="st4 st5 st6">3</text>
	<g class="st1">
		<text transform="matrix(1 0 0 1 12.2699 65.1147)" class="st7 st5 st6">2</text>
	</g>
	<g class="st1">
		<text transform="matrix(1 0 0 1 34.8953 38.45)" class="st7 st5 st6">1</text>
	</g>
</g>
<g id="cprAc1.tif">
	<g>
		<path class="st8" d="M52.6,30.7c-0.9,0-1.7,0-2.5,0c-0.3,0-0.7-0.2-0.8-0.4c-0.1-0.2,0-0.7,0.2-0.9c2.2-2.6,4.4-5.2,6.6-7.8
			c0.5-0.5,0.9-0.5,1.3,0c2.2,2.6,4.4,5.2,6.6,7.8c0.2,0.2,0.3,0.6,0.2,0.9c-0.1,0.2-0.5,0.4-0.8,0.4c-0.8,0.1-1.7,0-2.6,0
			c0,0.4,0,0.8,0,1.1c0,6.5,0,13,0,19.5c0,0.3,0.1,0.6,0,0.8c-0.1,0.3-0.4,0.5-0.7,0.6c-0.2,0-0.5-0.3-0.6-0.6c-0.1-0.2,0-0.5,0-0.7
			c0-6.8,0-13.7,0-20.5c0-1.5,0-1.5,1.5-1.5c0.3,0,0.6,0,1.2,0c-1.9-2.2-3.6-4.2-5.4-6.4c-1.8,2.1-3.5,4.2-5.4,6.4c0.6,0,1,0,1.3,0
			c1.4,0,1.4,0,1.4,1.4c0,6.3,0,12.6,0,18.9c0,5.3,0,10.7,0,16c0,0.3,0,0.6,0,0.9c1.8,0,3.6,0,5.5,0c0-0.3,0-0.6,0-0.9
			c0-3.5,0-7,0-10.5c0-0.3-0.1-0.6,0-0.8c0.1-0.3,0.4-0.5,0.6-0.7c0.2,0.2,0.5,0.4,0.7,0.7c0.1,0.1,0,0.4,0,0.6c0,3.6,0,7.2,0,10.8
			c0,0.3,0,0.5,0,0.8c1.5,0,2.9,0,4.4,0c0-8.2,0-16.3,0-24.5c-0.9,0-1.7,0-2.5,0c-0.3,0-0.7-0.2-0.8-0.4c-0.1-0.2,0-0.7,0.2-0.9
			c2.2-2.6,4.4-5.2,6.6-7.8c0.5-0.6,0.9-0.6,1.4,0c2.2,2.6,4.4,5.2,6.6,7.8c0.2,0.2,0.3,0.7,0.2,0.9c-0.1,0.2-0.5,0.3-0.8,0.4
			c-0.8,0-1.6,0-2.6,0c0,8.2,0,16.3,0,24.6c0.7,0,1.4,0,2,0c0.7,0,1,0.3,1,0.9c0,2.7,0,5.3,0,8c0,0.6-0.3,0.9-0.9,0.9
			c-0.3,0-0.6,0-0.9,0c-24.2,0-48.4,0-72.6,0c-1.5,0-1.5,0-1.5-1.5c0-2.4,0-4.9,0-7.3c0-0.9,0.2-1.1,1.1-1.1c0.6,0,1.3,0,2,0
			c0-8.2,0-16.3,0-24.6c-0.9,0-1.7,0-2.5,0c-0.3,0-0.7-0.2-0.8-0.4c-0.1-0.2,0-0.7,0.2-0.9c2.2-2.6,4.4-5.2,6.6-7.8
			c0.5-0.6,0.9-0.6,1.4,0c2.2,2.6,4.4,5.2,6.5,7.8c0.2,0.2,0.3,0.7,0.2,0.9c-0.1,0.2-0.6,0.4-0.9,0.4c-0.8,0.1-1.6,0-2.5,0
			c0,8.2,0,16.3,0,24.5c1.5,0,2.9,0,4.4,0c0-2.1,0-4.1,0-6.1c0-2,0-4,0-6c0-0.3,0.3-0.7,0.6-0.8c0.6-0.1,0.7,0.4,0.7,0.8
			c0,1.9,0,3.7,0,5.6c0,2.2,0,4.3,0,6.5c1.8,0,3.6,0,5.5,0c0-0.9,0-1.8,0-2.6c0-11.1,0-22.3,0-33.4c0-1.2,0.1-1.3,1.3-1.3
			c0.4,0,0.8,0,1.4,0c-1.9-2.2-3.6-4.3-5.4-6.4c-1.8,2.1-3.5,4.2-5.4,6.4c0.8,0,1.4,0,1.9,0c0.5,0,0.7,0.2,0.7,0.7
			c0,0.7,0,1.4,0,2.1c0,6.4,0,12.8,0,19.1c0,0.6,0.2,1.3-0.7,1.3c-0.8,0-0.6-0.8-0.6-1.3c0-6.5,0-13,0-19.5c0-0.4,0-0.7,0-1.2
			c-0.9,0-1.7,0-2.6,0c-0.3,0-0.7-0.2-0.8-0.5c-0.1-0.2,0.1-0.6,0.2-0.8c2.2-2.6,4.4-5.2,6.6-7.8c0.5-0.5,0.9-0.5,1.3,0
			c2.2,2.6,4.4,5.2,6.6,7.8c0.2,0.2,0.3,0.7,0.2,0.8c-0.1,0.2-0.5,0.4-0.8,0.4c-0.8,0.1-1.6,0-2.5,0c0,12,0,24,0,36
			c1.6,0,3.1,0,4.8,0c0.2-2.4,0.5-4.8,0.5-7.2c0.1-6.5,0.1-13.1,0-19.6c0-2.8-0.5-5.6-0.7-8.4c-0.2-2.5-0.5-5.1-0.8-7.6
			c0-0.2-0.1-0.5-0.3-0.6c-4.5-3.3-6.8-7.9-7.8-13.3c-0.2-1.2-0.3-2.4-0.4-3.7c-0.1-1.6,0.8-2.7,2.3-2.9c1.4-0.2,2.5,0.9,2.8,2.5
			c0.6,3.5,1.9,6.7,4.3,9.4c1,1.2,2.1,1.9,3.7,1.7c0.9-0.1,1.8,0,3,0c-0.2-0.4-0.3-0.7-0.5-0.8c-2.2-1.3-3.3-3.3-3.5-5.8
			C31.6,8.7,31.4,7.3,32,6c1-2.4,2.7-3.8,5.4-4.2c0.9-0.1,1.8-0.5,2.7-0.8c0.3-0.1,0.7,0,1,0c0.7,0,1,0.3,1,1c0,0.3,0.2,0.6,0.4,0.8
			c2.2,1.6,3,3.8,2.8,6.4c-0.1,1.2-0.2,2.4-0.6,3.6c-0.5,1.4-1.5,2.5-2.8,3.3c-0.2,0.1-0.4,0.4-0.6,0.7c0,0.1,0.1,0.1,0.1,0.2
			c1.5,0,3,0,4.5,0c0.2,0,0.3-0.1,0.5-0.3c2.3-2.1,4.1-4.6,4.9-7.6c0.3-1.2,0.6-2.4,0.9-3.6c0.3-1.3,1.5-2.2,2.7-2.1
			c1.4,0.2,2.4,1.2,2.3,2.6c-0.1,1.6-0.3,3.3-0.6,4.9c-0.7,3.6-2.1,6.8-4.6,9.6c-0.9,1-1.9,1.8-2.8,2.7c-0.2,0.2-0.5,0.5-0.5,0.8
			c-0.4,3.4-0.7,6.8-1.1,10.3c-1,9.1-0.3,18.3-0.4,27.4c0,1.7,0.4,3.3,0.7,5.1c1.5,0,3,0,4.6,0C52.6,54.7,52.6,42.8,52.6,30.7z
			 M75.1,68.1c-24.4,0-48.8,0-73.1,0c0,2.4,0,4.7,0,7c24.4,0,48.7,0,73.1,0C75.1,72.8,75.1,70.5,75.1,68.1z M10.3,66.7
			c0-0.2,0.1-0.3,0.1-0.4c0-3.6,0-7.2,0-10.8c0-4.6,0-9.2,0-13.8c0-0.6,0.3-0.9,0.9-0.9c0.5,0,1,0,1.8,0c-1.9-2.2-3.6-4.3-5.4-6.4
			c-1.8,2.1-3.5,4.2-5.4,6.4c0.6,0,1,0,1.3,0c1.2,0,1.3,0.1,1.3,1.4C5,50,5,57.8,5,65.7c0,0.3,0,0.6,0,1
			C6.8,66.7,8.5,66.7,10.3,66.7z M63.9,40.8c0.6,0,0.9,0,1.2,0c1.4,0,1.5,0.1,1.5,1.5c0,7.8,0,15.6,0,23.5c0,0.3,0,0.6,0,1
			c1.9,0,3.6,0,5.5,0c0-1,0-1.9,0-2.8c0-7.3,0-14.7,0-22c0-0.8,0.3-1.1,1.1-1c0.5,0,1,0,1.6,0c-1.9-2.2-3.6-4.3-5.4-6.4
			C67.5,36.5,65.8,38.5,63.9,40.8z M31.4,39.5c-0.1,0-0.1,0.1-0.2,0.1c0,7.2,0,14.4,0,21.5c2.2,0,4.4,0,6.6,0c0-0.1,0.1-0.2,0.1-0.3
			c0-5.3,0-10.7,0-16c0-0.5-0.2-0.6-0.6-0.6c-2.5-0.5-4.3-1.9-5.4-4.2C31.7,39.9,31.5,39.7,31.4,39.5z M45.9,39.6
			c-0.1,0-0.2-0.1-0.2-0.1c-0.1,0.2-0.3,0.4-0.4,0.7c-1.1,2.2-2.8,3.5-5.2,4c-0.7,0.1-0.9,0.4-0.9,1c0,5,0,10.1,0,15.1
			c0,0.3,0,0.6,0,0.8c2.3,0,4.4,0,6.6,0C45.9,54,45.9,46.8,45.9,39.6z M46,37.9c0.1-0.7,0.1-1.5,0.2-2.2c0.4-4,0.8-8.1,1.2-12.1
			c0.1-0.7,0.2-1.2,0.9-1.6c0.4-0.2,0.8-0.6,1.2-0.9c4.5-4.1,6.2-9.4,6.4-15.3c0-0.7-0.4-1.1-1.1-1.2c-0.6-0.1-1.1,0.3-1.2,0.9
			c-0.1,0.2-0.1,0.5-0.1,0.7c-0.9,4.4-2.7,8.3-6.1,11.3c-0.4,0.3-0.9,0.4-1.3,0.6c-0.2,0.1-0.5,0.3-0.6,0.5
			c-0.6,1.3-1.1,2.7-1.6,4.1c-0.8,1.9-1.5,3.8-2.3,5.6c-0.4,1.1-0.2,1.5,0.7,2.2c0.9,0.6,1.7,1.4,2.4,2.2
			C45.8,34.3,46.1,36.1,46,37.9z M31,37.7c0,0,0.1,0,0.1,0c0-0.1,0-0.3,0-0.4c0-3.1,1.3-5.5,4.1-7c0.2-0.1,0.4-0.4,0.4-0.7
			c0-0.4-0.1-0.9-0.2-1.3c-1.2-3.1-2.5-6.2-3.7-9.3c-0.2-0.6-0.4-1-1.2-0.9c-0.2,0-0.5-0.2-0.7-0.4c-3.6-3.1-5.5-7.1-6.3-11.7
			c-0.2-0.9-0.7-1.4-1.4-1.3c-0.7,0.1-1.1,0.7-1,1.6c0.1,1.3,0.2,2.6,0.5,3.8c1,5,3.2,9.2,7.4,12.2c0.3,0.2,0.5,0.5,0.6,0.8
			c0.2,1,0.2,2.1,0.3,3.1C30.2,30,30.6,33.9,31,37.7z M38.5,30.9c-3.4,0-6.1,2.7-6.1,6c0,3.3,2.7,6.1,6,6.1c3.3,0,6.1-2.7,6.1-6
			C44.6,33.7,41.9,30.9,38.5,30.9z M35.6,7.6c-3.3,2.4-3.2,4.3-0.2,6.8c1.1,0.9,1.8,1.6,1.7,3.1c-0.1,1.3,0.6,1.8,1.7,1.8
			c0.4,0,0.7-0.1,0.8-0.6c0.2-0.8,0.4-1.5,0.5-2.3c0-0.7,0.2-1.1,0.9-1.4c1.8-0.8,2.7-2.3,3-4.2C41,10.1,38.2,9.3,35.6,7.6z M33,8.1
			c0.8-0.7,1.4-1.3,2.1-1.8c0.2-0.2,0.7-0.2,0.9-0.1c1.4,0.7,2.7,1.5,4.1,2.1c1.2,0.5,2.5,0.7,3.8,1.1c0.4-2.1-0.6-4.5-2.3-5.5
			c-0.6-0.4-1.1-0.7-0.9-1.5c-1.1,0.1-2.2,0.1-3,1.1C37,4.3,37,4.3,36.1,3.5C34.3,4.5,33.1,5.8,33,8.1z M37.3,28.1
			c0.9,0,1.6,0,2.3,0c0.5,0,0.8-0.2,0.9-0.6c1.1-2.8,2.2-5.6,3.4-8.4c0.1-0.3,0.2-0.5,0.3-0.9c-0.9,0-1.6,0-2.3,0
			c-0.4,0-0.7,0.1-0.8,0.5c-0.3,0.7-0.6,1.4-0.9,2.2C39.2,23.2,38.3,25.5,37.3,28.1z M37.9,62.6c-2.2,0-4.4,0-6.5,0
			c-0.2,0-0.4,0.3-0.5,0.5c-0.2,0.9-0.3,1.8-0.4,2.7c-0.1,0.7,0.1,0.9,0.8,0.9c2,0,4.1,0,6.1,0c0.2,0,0.4,0,0.5-0.1
			C37.9,65.3,37.9,64,37.9,62.6z M39.3,62.6c0,1.4,0,2.7,0,4.1c2.2,0,4.4,0,6.6,0c0.5,0,0.6-0.3,0.6-0.8c-0.1-0.9-0.3-1.9-0.4-2.8
			c0-0.2-0.3-0.5-0.4-0.5C43.6,62.6,41.5,62.6,39.3,62.6z M32.8,18.2c1.2,3,2.3,5.7,3.5,8.7c0.5-1.3,1-2.3,1.4-3.4
			c0.1-0.2,0-0.5,0-0.7c-0.5-1.4-1.1-2.8-1.7-4.1c-0.1-0.2-0.4-0.5-0.6-0.5C34.5,18.1,33.7,18.2,32.8,18.2z M40,29.6
			c0,0,0-0.1,0-0.1c-1,0-1.9,0-2.9,0c0,0,0,0.1,0,0.1C38,29.6,39,29.6,40,29.6z"/>
		<ellipse class="st8" cx="38.5" cy="29.5" rx="2" ry="0.1"/>
		<path class="st8" d="M35.6,39.7c0-0.1,0-0.2,0-0.3c0.2-1,0-1.8-0.7-2.4c-0.2-0.2-0.4-0.4-0.5-0.6c-0.3-0.4-0.2-0.8,0.3-1
			c0.1,0,0.2-0.1,0.3-0.1c1.3-0.1,2.2-0.8,2.7-2c0.4-0.8,0.9-0.7,1.4,0c0.1,0.1,0.1,0.2,0.2,0.3c0.4,1,1.2,1.4,2.2,1.6
			c1.3,0.3,1.5,0.7,0.6,1.6c-0.8,0.8-1,1.7-0.9,2.8c0.1,1.2-0.3,1.5-1.3,1c-1.1-0.6-2.1-0.4-3.2,0.1C36,41,35.6,40.6,35.6,39.7z
			 M40,39.1c-0.3-1.2,0-2.1,0.6-2.6c-0.8-0.6-1.5-1.1-2.3-1.6c-0.3,0.8-1,1.3-2.3,1.4c1,0.8,1.3,1.6,1,2.9
			C38,38.5,38.9,38.4,40,39.1z"/>
	</g>
</g>
</svg>
