<?xml version="1.0" encoding="utf-8"?>
<!-- Generator: Adobe Illustrator 24.0.3, SVG Export Plug-In . SVG Version: 6.00 Build 0)  -->
<svg version="1.1" id="Layer_1" xmlns="http://www.w3.org/2000/svg" xmlns:xlink="http://www.w3.org/1999/xlink" x="0px" y="0px"
	 viewBox="0 0 77 76.9" style="enable-background:new 0 0 77 76.9;" xml:space="preserve">
<style type="text/css">
	.st0{display:none;}
	.st1{display:inline;}
	.st2{fill:#00BFDA;stroke:#00BFDA;stroke-miterlimit:10;}
	.st3{fill:#00BFDA;stroke:#00BFDA;stroke-linecap:round;stroke-linejoin:round;stroke-miterlimit:10;}
	.st4{display:inline;fill:#00BFDA;}
	.st5{font-family:'ComicSansMS';}
	.st6{font-size:18.4198px;}
	.st7{fill:#00BFDA;}
	.st8{fill:#00BFDA;stroke:#00BFDA;stroke-width:0.25;stroke-linecap:round;stroke-linejoin:round;stroke-miterlimit:10;}
</style>
<g class="st0">
	<g class="st1">
		<path class="st2" d="M38.5,71C28.3,71,18.2,71,8,71c-3,0-4.5-1.5-4.5-4.6c0-5.7,0-11.5,0-17.2c0-3,1.5-4.5,4.5-4.5
			c5.1,0,10.2,0,15.4,0c1.6,0,2-0.4,2-2c0-6.2,0-12.4,0-18.6c0-3.2,1.6-4.8,4.8-4.8c5.6,0,11.2,0,16.8,0c3.1,0,4.7,1.6,4.7,4.7
			c0,3.7,0,7.4,0.1,11.1c0,2.5,0,4.9,0,7.4c0,1.9,0.3,2.2,2.3,2.2c5,0,10,0,15.1,0c3,0,4.5,1.5,4.5,4.5c0,5.8,0,11.5,0,17.3
			c0,2.9-1.6,4.5-4.5,4.5C58.8,71,48.6,71,38.5,71z M38.4,70c10.2,0,20.4,0,30.6,0c2.3,0,3.5-1.2,3.5-3.5c0-5.8,0-11.7,0-17.5
			c0-2.3-1.2-3.4-3.5-3.4c-5.2,0-10.3,0-15.5,0c-2.1,0-2.9-0.8-2.9-2.9c0-3,0-6.1,0-9.1c0-3.2,0-6.4-0.1-9.6c0-2.5-1.2-3.7-3.8-3.7
			c-5.6,0-11.2,0-16.8,0c-2.6,0-3.8,1.2-3.8,3.8c0,6.2,0,12.4,0,18.7c0,2.1-0.8,2.9-2.9,2.9c-5.1,0-10.2,0-15.4,0
			c-2.5,0-3.6,1.1-3.6,3.6c0,5.7,0,11.5,0,17.2C4.4,68.9,5.6,70,8,70C18.2,70,28.3,70,38.4,70z"/>
		<path class="st3" d="M46.9,3.9c0,0.1,0,0.1,0,0.2c-0.8,2-1.6,4-2.4,6c-0.1,0.2-0.4,0.2-0.6,0.3c-0.1-0.2-0.3-0.5-0.2-0.6
			c0.8-2,1.5-4,2.3-6c0.1-0.2,0.3-0.3,0.5-0.3c0.2,0,0.4,0.1,0.6,0.2C47,3.7,46.9,3.8,46.9,3.9z"/>
		<path class="st3" d="M33.5,9.9c-0.1,0.1-0.3,0.4-0.3,0.4c-0.2-0.1-0.5-0.2-0.6-0.4c-0.5-1.2-0.9-2.3-1.4-3.5
			c-0.3-0.8-0.6-1.5-0.9-2.3c-0.1-0.2,0.2-0.5,0.2-0.7C30.7,3.5,31,3.6,31,3.8c0.8,1.9,1.6,3.9,2.3,5.9C33.4,9.7,33.4,9.8,33.5,9.9z
			"/>
		<path class="st3" d="M39,5.9c0,1,0,2.1,0,3.1c0,0.3-0.3,0.6-0.4,0.8c-0.2-0.3-0.5-0.5-0.5-0.8c0-2.1,0-4.3,0-6.4
			c0-0.2,0.3-0.5,0.4-0.7c0.2,0.3,0.5,0.5,0.5,0.8C39,3.8,39,4.8,39,5.9z"/>
	</g>
	<text transform="matrix(1 0 0 1 55.6627 65.114)" class="st4 st5 st6">3</text>
	<g class="st1">
		<text transform="matrix(1 0 0 1 12.2699 65.1147)" class="st7 st5 st6">2</text>
	</g>
	<g class="st1">
		<text transform="matrix(1 0 0 1 34.8953 38.45)" class="st7 st5 st6">1</text>
	</g>
</g>
<g id="niLsGC.tif">
	<g>
		<path class="st8" d="M64.3,1.7c0,24.5,0,49,0,73.6c-18.6,0-37.2,0-55.9,0c0-0.3,0-0.6,0-1c0-18.1,0-36.3,0-54.4
			c0-0.6,0.1-0.9,0.6-1.3c5.7-5.5,11.4-11,17.1-16.4c0.3-0.3,0.7-0.5,1.1-0.5c12.3,0,24.5,0,36.8,0C64,1.6,64.1,1.7,64.3,1.7z
			 M62.2,73.2c0-0.4,0-0.7,0-1c0-22.5,0-45,0-67.6c0-0.7-0.2-1-1-1c-10.7,0-21.3,0-32,0c-0.8,0-1,0.2-1,1c0,4.9,0,9.9,0,14.8
			c0,0.4,0,0.7,0,1.2c-0.5,0-0.8,0-1.2,0c-5.3,0-10.6,0-15.9,0c-0.8,0-1,0.2-0.9,1c0,3.6,0,7.3,0,10.9c0,13.2,0,26.5,0,39.7
			c0,1.1,0,1.1,1.1,1.1c16.6,0,33.2,0,49.8,0C61.6,73.2,61.9,73.2,62.2,73.2z M12,18.5c0.4,0,0.6,0.1,0.7,0.1c4.3,0,8.5,0,12.8,0
			c0.6,0,0.8-0.2,0.8-0.8c0-4.1,0-8.2,0-12.2c0-0.2,0-0.4-0.1-0.8C21.5,9.4,16.8,13.9,12,18.5z"/>
		<g>
			<path class="st7" d="M17.7,56.6l1.2-1.1l2.6,2.9c0,0,0.1,0,0.1,0c0,0,0,0,0,0c0,0,0.1,0,0.1,0l5.7-6l1.2,1.4l-7,7L17.7,56.6z
				 M36.5,59c-0.8,0-1.3,0-1.5-0.2c-0.2-0.2-0.1-0.7,0-1.5h20.2v1.7l-0.3,0c-0.3,0-0.5,0-0.8,0l-9.9,0H36.5z M17.8,44.1l1.2-1.2
				l2.6,3c0,0,0.1,0,0.1,0c0,0,0,0,0,0c0,0,0.1,0,0.1,0l5.8-5.9l1.3,1.3l-7.1,7.2L17.8,44.1z M34.9,45.9v-1.7h20.8v1.7H34.9z
				 M17.8,31.7l1.2-1.1l2.6,3.1c0,0,0.1,0,0.1,0c0,0,0,0,0,0c0,0,0.1,0,0.1,0l5.8-6l1.2,1.3l-7,7L17.8,31.7z M34.9,32.5v-1.7h19.5
				c0.8,0,1.2,0,1.4,0.2c0.2,0.2,0.1,0.7-0.1,1.5H34.9z"/>
			<path class="st7" d="M27.6,27.9l0.7,0.7l0.3,0.4L25,32.6l-3.3,3.2l-2.2-2.4l-1.6-1.7l0.3-0.3l0.8-0.7l1,1.2l1.5,1.8
				c0,0.1,0.1,0.1,0.2,0.1c0,0,0,0,0,0c0.1,0,0.1,0,0.2-0.1l3.7-3.8L27.6,27.9 M36,30.7v0.2l5.3,0l8,0l5.1,0c0.7,0,1.2,0,1.3,0.2
				c0.1,0.2,0.1,0.6-0.1,1.3H35.1v-1.5H36V30.7 M27.5,40.2l0.7,0.7l0.4,0.4L27,43l-5.2,5.3L18,44.1l0.7-0.7l0.3-0.3l2.5,2.9
				c0,0.1,0.1,0.1,0.2,0.1c0,0,0,0,0,0c0.1,0,0.1,0,0.2-0.1l2.1-2.1L27.5,40.2 M55.6,44.4v1.4H35v-1.4H55.6 M27.5,52.6l0.3,0.4
				l0.8,0.9l-4.4,4.4l-2.5,2.5l-3.8-4l1.1-1l0.6,0.7l1.9,2.1c0,0.1,0.1,0.1,0.2,0.1c0,0,0,0,0,0c0.1,0,0.1,0,0.2-0.1l1.9-2
				L27.5,52.6 M55.1,57.4v1.4c0,0-0.1,0-0.1,0c-0.3,0-0.5,0-0.8,0c-3.1,0-6.1,0-9.2,0l-5.7,0l-2.9,0c-0.7,0-1.2,0-1.4-0.2
				c-0.1-0.2-0.1-0.6,0.1-1.3H55.1 M27.6,27.5c-1.9,2-3.8,3.9-5.9,6.1c-1-1.2-1.9-2.2-2.7-3.2c-0.6,0.6-1.1,1-1.4,1.3
				c1.4,1.5,2.8,3,4.1,4.4c2.4-2.4,4.8-4.8,7.2-7.2C28.5,28.5,28.1,28.1,27.6,27.5L27.6,27.5z M36,30.7c-0.4,0-0.7,0-1.2,0
				c0,0.7,0,1.3,0,2c7.1,0,14.1,0,21.1,0c0.4-1.9,0.3-2-1.4-2c0,0,0,0,0,0c-1.7,0-3.4,0-5.1,0C44.9,30.7,40.4,30.7,36,30.7L36,30.7z
				 M27.5,39.8c-2,2-3.8,3.9-5.9,6c-0.9-1-1.8-2-2.7-3.1c-0.6,0.6-1.1,1.1-1.4,1.4c1.4,1.6,2.8,3,4.1,4.5c2.5-2.5,4.8-4.9,7.2-7.4
				C28.6,40.9,28.1,40.4,27.5,39.8L27.5,39.8z M55.9,44.1c-7.1,0-14.1,0-21.1,0c0,0.7,0,1.3,0,1.9c7.1,0,14.1,0,21.1,0
				C55.9,45.4,55.9,44.8,55.9,44.1L55.9,44.1z M27.5,52.2c-1.9,2-3.8,4-5.8,6.1c-0.9-1-1.8-2-2.7-3c-0.6,0.5-1,1-1.4,1.3
				c1.4,1.5,2.8,2.9,4.2,4.3c2.5-2.5,4.9-4.8,7.2-7.2C28.5,53.4,28.1,52.9,27.5,52.2L27.5,52.2z M55.3,57.1c-6.9,0-13.7,0-20.4,0
				c-0.4,1.9-0.3,2,1.5,2c2.9,0,5.7,0,8.6,0c3.1,0,6.1,0,9.2,0c0.4,0,0.8,0,1.1-0.1C55.3,58.3,55.3,57.8,55.3,57.1L55.3,57.1z"/>
		</g>
		<g>
			<path class="st7" d="M34.9,32.5v-1.7h19.5c0.8,0,1.2,0,1.4,0.2c0.2,0.2,0.1,0.7-0.1,1.5H34.9z"/>
			<path class="st7" d="M36,30.7v0.2l5.3,0l8,0l5.1,0c0.7,0,1.2,0,1.3,0.2c0.1,0.2,0.1,0.6-0.1,1.3H35.1v-1.5H36V30.7 M36,30.7
				c-0.4,0-0.7,0-1.2,0c0,0.7,0,1.3,0,2c7.1,0,14.1,0,21.1,0c0.4-1.9,0.3-2-1.4-2c0,0,0,0,0,0c-1.7,0-3.4,0-5.1,0
				C44.9,30.7,40.4,30.7,36,30.7L36,30.7z"/>
		</g>
		<g>
			<rect x="34.9" y="44.3" class="st7" width="20.8" height="1.7"/>
			<path class="st7" d="M55.6,44.4v1.4H35v-1.4H55.6 M55.9,44.1c-7.1,0-14.1,0-21.1,0c0,0.7,0,1.3,0,1.9c7.1,0,14.1,0,21.1,0
				C55.9,45.4,55.9,44.8,55.9,44.1L55.9,44.1z"/>
		</g>
		<g>
			<path class="st7" d="M36.5,59c-0.8,0-1.3,0-1.5-0.2c-0.2-0.2-0.1-0.7,0-1.5h20.2v1.7l-0.3,0c-0.3,0-0.5,0-0.8,0l-9.9,0H36.5z"/>
			<path class="st7" d="M55.1,57.4v1.4c0,0-0.1,0-0.1,0c-0.3,0-0.5,0-0.8,0c-3.1,0-6.1,0-9.2,0l-5.7,0l-2.9,0c-0.7,0-1.2,0-1.4-0.2
				c-0.1-0.2-0.1-0.6,0.1-1.3H55.1 M55.3,57.1c-6.9,0-13.7,0-20.4,0c-0.4,1.9-0.3,2,1.5,2c2.9,0,5.7,0,8.6,0c3.1,0,6.1,0,9.2,0
				c0.4,0,0.8,0,1.1-0.1C55.3,58.3,55.3,57.8,55.3,57.1L55.3,57.1z"/>
		</g>
		<path class="st8" d="M21.7,33.6c2.1-2.2,4-4.1,5.9-6.1c0.5,0.6,0.9,1,1.3,1.5c-2.4,2.4-4.8,4.7-7.2,7.2c-1.3-1.4-2.7-2.9-4.1-4.4
			c0.3-0.3,0.8-0.7,1.4-1.3C19.8,31.4,20.7,32.4,21.7,33.6z"/>
		<path class="st8" d="M27.5,39.8c0.6,0.6,1,1.1,1.4,1.5c-2.4,2.4-4.8,4.9-7.2,7.4c-1.4-1.5-2.7-3-4.1-4.5c0.3-0.3,0.7-0.7,1.4-1.4
			c0.9,1.1,1.8,2.1,2.7,3.1C23.7,43.7,25.6,41.8,27.5,39.8z"/>
		<path class="st8" d="M21.7,60.9c-1.3-1.4-2.7-2.8-4.2-4.3c0.4-0.4,0.8-0.8,1.4-1.3c0.9,0.9,1.7,1.9,2.7,3c2-2.1,3.9-4.1,5.8-6.1
			c0.6,0.7,1,1.2,1.4,1.6C26.6,56.1,24.2,58.5,21.7,60.9z"/>
	</g>
</g>
</svg>
